<svg xmlns="http://www.w3.org/2000/svg"  viewBox="0 0 80 80" width="80px" height="80px"><path d="M 12 5 A 1.0001 1.0001 0 0 0 11.359375 5.2324219 L 5.359375 10.232422 A 1.0001 1.0001 0 0 0 5 11 L 5 34 A 1.0001 1.0001 0 0 0 5.2929688 34.707031 L 7.4707031 36.884766 L 5.9238281 37.003906 A 1.0001 1.0001 0 0 0 5 38 L 5 66 A 1.0001 1.0001 0 0 0 5.1992188 66.599609 L 11.199219 74.599609 A 1.0001 1.0001 0 0 0 12.132812 74.992188 L 42.132812 70.992188 A 1.0001 1.0001 0 0 0 43 70 L 43 68.087891 L 45.320312 70.234375 A 1.0001 1.0001 0 0 0 46.132812 70.490234 L 74.132812 66.740234 A 1.0001 1.0001 0 0 0 75 65.75 L 75 40 A 1.0001 1.0001 0 0 0 74.380859 39.076172 L 70.064453 37.294922 L 74.074219 36.998047 A 1.0001 1.0001 0 0 0 75 36 L 75 6 A 1.0001 1.0001 0 0 0 74 5 L 47 5 A 1.0001 1.0001 0 0 0 46.689453 5.0488281 L 43 6.2578125 L 43 6 A 1.0001 1.0001 0 0 0 42 5 L 12 5 z M 12.361328 7 L 41 7 L 41 7.4140625 A 1.0001 1.0001 0 0 0 41 7.8828125 L 41 37.064453 L 36.09375 37.390625 A 1.0001 1.0001 0 0 0 35.716797 37.416016 L 12.386719 38.972656 L 10.53125 37.117188 A 1.0001 1.0001 0 0 0 10.328125 36.914062 L 7 33.585938 L 7 11.46875 L 12.361328 7 z M 47.160156 7 L 73 7 L 73 35.072266 L 65.798828 35.605469 A 1.0001 1.0001 0 0 0 65.771484 35.603516 A 1.0001 1.0001 0 0 0 65.572266 35.623047 L 47.191406 36.982422 L 43 34.970703 L 43 8.3613281 L 47.160156 7 z M 48 9.0390625 C 47.45 9.0390625 47 9.4780625 47 10.039062 C 47 10.589063 47.45 11.039062 48 11.039062 C 48.55 11.039062 49 10.589063 49 10.039062 C 49 9.4780625 48.55 9.0390625 48 9.0390625 z M 14 10 C 13.45 10 13 10.45 13 11 C 13 11.55 13.45 12 14 12 C 14.55 12 15 11.55 15 11 C 15 10.45 14.55 10 14 10 z M 48 13.039062 C 47.45 13.039062 47 13.478063 47 14.039062 C 47 14.589063 47.45 15.039062 48 15.039062 C 48.55 15.039062 49 14.589063 49 14.039062 C 49 13.478063 48.55 13.039062 48 13.039062 z M 14 14 C 13.45 14 13 14.45 13 15 C 13 15.55 13.45 16 14 16 C 14.55 16 15 15.55 15 15 C 15 14.45 14.55 14 14 14 z M 48 17.039062 C 47.45 17.039062 47 17.478063 47 18.039062 C 47 18.589063 47.45 19.039062 48 19.039062 C 48.55 19.039062 49 18.589063 49 18.039062 C 49 17.478063 48.55 17.039062 48 17.039062 z M 14 18 C 13.45 18 13 18.45 13 19 C 13 19.55 13.45 20 14 20 C 14.55 20 15 19.55 15 19 C 15 18.45 14.55 18 14 18 z M 48 21.039062 C 47.45 21.039063 47 21.478063 47 22.039062 C 47 22.589063 47.45 23.039062 48 23.039062 C 48.55 23.039063 49 22.589063 49 22.039062 C 49 21.478062 48.55 21.039062 48 21.039062 z M 14 22 C 13.45 22 13 22.45 13 23 C 13 23.55 13.45 24 14 24 C 14.55 24 15 23.55 15 23 C 15 22.45 14.55 22 14 22 z M 48 25.039062 C 47.45 25.039062 47 25.478063 47 26.039062 C 47 26.589063 47.45 27.039062 48 27.039062 C 48.55 27.039063 49 26.589063 49 26.039062 C 49 25.478062 48.55 25.039062 48 25.039062 z M 14 26 C 13.45 26 13 26.45 13 27 C 13 27.55 13.45 28 14 28 C 14.55 28 15 27.55 15 27 C 15 26.45 14.55 26 14 26 z M 48 29.039062 C 47.45 29.039062 47 29.478063 47 30.039062 C 47 30.589063 47.45 31.039062 48 31.039062 C 48.55 31.039063 49 30.589063 49 30.039062 C 49 29.478062 48.55 29.039062 48 29.039062 z M 14 30 C 13.45 30 13 30.45 13 31 C 13 31.55 13.45 32 14 32 C 14.55 32 15 31.55 15 31 C 15 30.45 14.55 30 14 30 z M 48 33.039062 C 47.45 33.039062 47 33.478063 47 34.039062 C 47 34.589063 47.45 35.039062 48 35.039062 C 48.55 35.039062 49 34.589062 49 34.039062 C 49 33.478062 48.55 33.039062 48 33.039062 z M 14 34 C 13.45 34 13 34.45 13 35 C 13 35.55 13.45 36 14 36 C 14.55 36 15 35.55 15 35 C 15 34.45 14.55 34 14 34 z M 43 37.189453 L 46.566406 38.902344 A 1.0001 1.0001 0 0 0 47.074219 38.998047 L 65.619141 37.625 L 73 40.669922 L 73 64.875 L 46.333984 68.447266 L 43 65.363281 L 43 42 A 1.0001 1.0001 0 0 0 42.513672 41.142578 L 39.251953 39.185547 L 42.066406 38.998047 A 1.0001 1.0001 0 0 0 43 38 L 43 37.189453 z M 9.3320312 38.746094 L 11.292969 40.707031 A 1.0001 1.0001 0 0 0 12.066406 40.998047 L 35.753906 39.417969 L 41 42.566406 L 41 65.628906 A 1.0001 1.0001 0 0 0 41 65.949219 L 41 69.125 L 12.449219 72.931641 L 7 65.666016 L 7 38.925781 L 9.3320312 38.746094 z M 70.859375 41.230469 C 70.309375 41.270469 69.889453 41.750781 69.939453 42.300781 C 69.970453 42.830781 70.410688 43.229469 70.929688 43.230469 C 70.959687 43.230469 70.979766 43.230703 71.009766 43.220703 C 71.559766 43.180703 71.969688 42.701391 71.929688 42.150391 C 71.889688 41.600391 71.410375 41.190469 70.859375 41.230469 z M 66.869141 41.519531 C 66.318141 41.559531 65.909219 42.039844 65.949219 42.589844 C 65.989219 43.119844 66.430453 43.519531 66.939453 43.519531 L 67.019531 43.519531 C 67.569531 43.479531 67.979453 43.001172 67.939453 42.451172 C 67.899453 41.900172 67.419141 41.479531 66.869141 41.519531 z M 62.880859 41.820312 C 62.330859 41.860312 61.920938 42.340625 61.960938 42.890625 C 62.000937 43.420625 62.439937 43.819313 62.960938 43.820312 C 62.979938 43.820312 63.008297 43.820547 63.029297 43.810547 C 63.579297 43.770547 63.989219 43.290234 63.949219 42.740234 C 63.909219 42.189234 63.430859 41.781312 62.880859 41.820312 z M 58.890625 42.109375 C 58.340625 42.160375 57.930703 42.639453 57.970703 43.189453 C 58.010703 43.710453 58.450938 44.109375 58.960938 44.109375 L 59.039062 44.109375 C 59.589062 44.069375 60.000937 43.589062 59.960938 43.039062 C 59.920938 42.489062 59.440625 42.080375 58.890625 42.109375 z M 54.898438 42.410156 C 54.348438 42.450156 53.938516 42.928516 53.978516 43.478516 C 54.019516 44.009516 54.459516 44.410156 54.978516 44.410156 C 54.998516 44.410156 55.018828 44.409438 55.048828 44.398438 C 55.598828 44.358437 56.008516 43.890078 55.978516 43.330078 C 55.928516 42.780078 55.449438 42.370156 54.898438 42.410156 z M 50.910156 42.710938 C 50.359156 42.750937 49.950234 43.228297 49.990234 43.779297 C 50.030234 44.309297 50.470234 44.699219 50.990234 44.699219 L 51.058594 44.699219 C 51.608594 44.659219 52.029516 44.180859 51.978516 43.630859 C 51.938516 43.080859 51.460156 42.670938 50.910156 42.710938 z M 46.929688 43 C 46.369688 43.04 45.96 43.518359 46 44.068359 C 46.04 44.599359 46.479 45 47 45 L 47.068359 45 C 47.619359 44.96 48.04 44.479687 48 43.929688 C 47.96 43.379688 47.479687 42.96 46.929688 43 z M 37.849609 43.400391 C 37.299609 43.440391 36.889688 43.920703 36.929688 44.470703 C 36.969687 44.990703 37.409687 45.390625 37.929688 45.390625 L 38.009766 45.390625 C 38.559766 45.350625 38.969922 44.871547 38.919922 44.310547 C 38.879922 43.760547 38.399609 43.350391 37.849609 43.400391 z M 33.859375 43.710938 C 33.309375 43.750937 32.899453 44.228297 32.939453 44.779297 C 32.979453 45.299297 33.420453 45.699219 33.939453 45.699219 L 34.019531 45.699219 C 34.569531 45.659219 34.979453 45.169141 34.939453 44.619141 C 34.889453 44.068141 34.410375 43.660938 33.859375 43.710938 z M 29.869141 44.019531 C 29.318141 44.059531 28.909219 44.539844 28.949219 45.089844 C 28.989219 45.608844 29.429219 46.009766 29.949219 46.009766 L 30.029297 46.009766 C 30.579297 45.969766 30.989219 45.490687 30.949219 44.929688 C 30.909219 44.379688 30.419141 43.969531 29.869141 44.019531 z M 25.880859 44.318359 C 25.340859 44.369359 24.920703 44.848438 24.970703 45.398438 C 25.010703 45.919438 25.439937 46.318359 25.960938 46.318359 L 26.039062 46.318359 C 26.589062 46.279359 27.000937 45.790234 26.960938 45.240234 C 26.920938 44.689234 26.440859 44.279359 25.880859 44.318359 z M 21.898438 44.630859 C 21.348437 44.680859 20.938516 45.160938 20.978516 45.710938 C 21.019516 46.229938 21.45975 46.630859 21.96875 46.630859 L 22.048828 46.630859 C 22.598828 46.590859 23.00875 46.100781 22.96875 45.550781 C 22.92875 45.000781 22.449437 44.590859 21.898438 44.630859 z M 17.910156 44.939453 C 17.359156 44.990453 16.950234 45.469531 16.990234 46.019531 C 17.030234 46.539531 17.470234 46.938453 17.990234 46.939453 L 18.058594 46.939453 C 18.619594 46.889453 19.029516 46.410375 18.978516 45.859375 C 18.938516 45.309375 18.460156 44.899453 17.910156 44.939453 z M 13.919922 45.25 C 13.369922 45.29 12.96 45.780078 13 46.330078 C 13.04 46.850078 13.479 47.25 14 47.25 L 14.080078 47.25 C 14.630078 47.2 15.04 46.719922 15 46.169922 C 14.95 45.619922 14.469922 45.21 13.919922 45.25 z M 47 46.978516 C 46.45 46.978516 46 47.428516 46 47.978516 C 46 48.529516 46.45 48.978516 47 48.978516 C 47.55 48.978516 48 48.529516 48 47.978516 C 48 47.428516 47.55 46.978516 47 46.978516 z M 14 49 C 13.45 49 13 49.45 13 50 C 13 50.55 13.45 51 14 51 C 14.55 51 15 50.55 15 50 C 15 49.45 14.55 49 14 49 z M 47 50.978516 C 46.45 50.978516 46 51.428516 46 51.978516 C 46 52.529516 46.45 52.978516 47 52.978516 C 47.55 52.978516 48 52.529516 48 51.978516 C 48 51.428516 47.55 50.978516 47 50.978516 z M 14 53 C 13.45 53 13 53.45 13 54 C 13 54.55 13.45 55 14 55 C 14.55 55 15 54.55 15 54 C 15 53.45 14.55 53 14 53 z M 47 54.978516 C 46.45 54.978516 46 55.428516 46 55.978516 C 46 56.529516 46.45 56.978516 47 56.978516 C 47.55 56.978516 48 56.529516 48 55.978516 C 48 55.428516 47.55 54.978516 47 54.978516 z M 14 57 C 13.45 57 13 57.45 13 58 C 13 58.55 13.45 59 14 59 C 14.55 59 15 58.55 15 58 C 15 57.45 14.55 57 14 57 z M 47 58.978516 C 46.45 58.978516 46 59.428516 46 59.978516 C 46 60.529516 46.45 60.978516 47 60.978516 C 47.55 60.978516 48 60.529516 48 59.978516 C 48 59.428516 47.55 58.978516 47 58.978516 z M 14 61 C 13.45 61 13 61.45 13 62 C 13 62.55 13.45 63 14 63 C 14.55 63 15 62.55 15 62 C 15 61.45 14.55 61 14 61 z M 47 62.978516 C 46.45 62.978516 46 63.428516 46 63.978516 C 46 64.529516 46.45 64.978516 47 64.978516 C 47.55 64.978516 48 64.529516 48 63.978516 C 48 63.428516 47.55 62.978516 47 62.978516 z M 14 65 C 13.45 65 13 65.45 13 66 C 13 66.55 13.45 67 14 67 C 14.55 67 15 66.55 15 66 C 15 65.45 14.55 65 14 65 z M 14 69 C 13.45 69 13 69.45 13 70 C 13 70.55 13.45 71 14 71 C 14.55 71 15 70.55 15 70 C 15 69.45 14.55 69 14 69 z"/></svg>