<svg xmlns="http://www.w3.org/2000/svg"  viewBox="0 0 80 80" width="80px" height="80px"><path d="M 15 10 C 12.250484 10 10 12.250484 10 15 L 10 65 C 10 67.749516 12.250484 70 15 70 L 65 70 C 67.749516 70 70 67.749516 70 65 L 70 15 C 70 12.250484 67.749516 10 65 10 L 15 10 z M 15 12 L 39 12 L 39 39 L 12 39 L 12 15 C 12 13.331516 13.331516 12 15 12 z M 41 12 L 43 12 L 49 12 L 55 12 L 61 12 L 65 12 C 65.464928 12 65.897983 12.111616 66.289062 12.296875 A 1 1 0 0 0 66 13 A 1 1 0 0 0 67 14 A 1 1 0 0 0 67.703125 13.710938 C 67.888384 14.102017 68 14.535072 68 15 L 68 19 L 68 25 L 68 31 L 68 37 L 68 39 L 41 39 L 41 12 z M 68 37 A 1 1 0 0 0 67 36 A 1 1 0 0 0 66 37 A 1 1 0 0 0 67 38 A 1 1 0 0 0 68 37 z M 68 31 A 1 1 0 0 0 67 30 A 1 1 0 0 0 66 31 A 1 1 0 0 0 67 32 A 1 1 0 0 0 68 31 z M 68 25 A 1 1 0 0 0 67 24 A 1 1 0 0 0 66 25 A 1 1 0 0 0 67 26 A 1 1 0 0 0 68 25 z M 68 19 A 1 1 0 0 0 67 18 A 1 1 0 0 0 66 19 A 1 1 0 0 0 67 20 A 1 1 0 0 0 68 19 z M 61 12 A 1 1 0 0 0 60 13 A 1 1 0 0 0 61 14 A 1 1 0 0 0 62 13 A 1 1 0 0 0 61 12 z M 55 12 A 1 1 0 0 0 54 13 A 1 1 0 0 0 55 14 A 1 1 0 0 0 56 13 A 1 1 0 0 0 55 12 z M 49 12 A 1 1 0 0 0 48 13 A 1 1 0 0 0 49 14 A 1 1 0 0 0 50 13 A 1 1 0 0 0 49 12 z M 43 12 A 1 1 0 0 0 42 13 A 1 1 0 0 0 43 14 A 1 1 0 0 0 44 13 A 1 1 0 0 0 43 12 z M 46 15 A 1 1 0 0 0 45 16 A 1 1 0 0 0 46 17 A 1 1 0 0 0 47 16 A 1 1 0 0 0 46 15 z M 52 15 A 1 1 0 0 0 51 16 A 1 1 0 0 0 52 17 A 1 1 0 0 0 53 16 A 1 1 0 0 0 52 15 z M 58 15 A 1 1 0 0 0 57 16 A 1 1 0 0 0 58 17 A 1 1 0 0 0 59 16 A 1 1 0 0 0 58 15 z M 64 15 A 1 1 0 0 0 63 16 A 1 1 0 0 0 64 17 A 1 1 0 0 0 65 16 A 1 1 0 0 0 64 15 z M 43 18 A 1 1 0 0 0 42 19 A 1 1 0 0 0 43 20 A 1 1 0 0 0 44 19 A 1 1 0 0 0 43 18 z M 49 18 A 1 1 0 0 0 48 19 A 1 1 0 0 0 49 20 A 1 1 0 0 0 50 19 A 1 1 0 0 0 49 18 z M 55 18 A 1 1 0 0 0 54 19 A 1 1 0 0 0 55 20 A 1 1 0 0 0 56 19 A 1 1 0 0 0 55 18 z M 61 18 A 1 1 0 0 0 60 19 A 1 1 0 0 0 61 20 A 1 1 0 0 0 62 19 A 1 1 0 0 0 61 18 z M 46 21 A 1 1 0 0 0 45 22 A 1 1 0 0 0 46 23 A 1 1 0 0 0 47 22 A 1 1 0 0 0 46 21 z M 52 21 A 1 1 0 0 0 51 22 A 1 1 0 0 0 52 23 A 1 1 0 0 0 53 22 A 1 1 0 0 0 52 21 z M 58 21 A 1 1 0 0 0 57 22 A 1 1 0 0 0 58 23 A 1 1 0 0 0 59 22 A 1 1 0 0 0 58 21 z M 64 21 A 1 1 0 0 0 63 22 A 1 1 0 0 0 64 23 A 1 1 0 0 0 65 22 A 1 1 0 0 0 64 21 z M 43 24 A 1 1 0 0 0 42 25 A 1 1 0 0 0 43 26 A 1 1 0 0 0 44 25 A 1 1 0 0 0 43 24 z M 49 24 A 1 1 0 0 0 48 25 A 1 1 0 0 0 49 26 A 1 1 0 0 0 50 25 A 1 1 0 0 0 49 24 z M 55 24 A 1 1 0 0 0 54 25 A 1 1 0 0 0 55 26 A 1 1 0 0 0 56 25 A 1 1 0 0 0 55 24 z M 61 24 A 1 1 0 0 0 60 25 A 1 1 0 0 0 61 26 A 1 1 0 0 0 62 25 A 1 1 0 0 0 61 24 z M 46 27 A 1 1 0 0 0 45 28 A 1 1 0 0 0 46 29 A 1 1 0 0 0 47 28 A 1 1 0 0 0 46 27 z M 52 27 A 1 1 0 0 0 51 28 A 1 1 0 0 0 52 29 A 1 1 0 0 0 53 28 A 1 1 0 0 0 52 27 z M 58 27 A 1 1 0 0 0 57 28 A 1 1 0 0 0 58 29 A 1 1 0 0 0 59 28 A 1 1 0 0 0 58 27 z M 64 27 A 1 1 0 0 0 63 28 A 1 1 0 0 0 64 29 A 1 1 0 0 0 65 28 A 1 1 0 0 0 64 27 z M 43 30 A 1 1 0 0 0 42 31 A 1 1 0 0 0 43 32 A 1 1 0 0 0 44 31 A 1 1 0 0 0 43 30 z M 49 30 A 1 1 0 0 0 48 31 A 1 1 0 0 0 49 32 A 1 1 0 0 0 50 31 A 1 1 0 0 0 49 30 z M 55 30 A 1 1 0 0 0 54 31 A 1 1 0 0 0 55 32 A 1 1 0 0 0 56 31 A 1 1 0 0 0 55 30 z M 61 30 A 1 1 0 0 0 60 31 A 1 1 0 0 0 61 32 A 1 1 0 0 0 62 31 A 1 1 0 0 0 61 30 z M 46 33 A 1 1 0 0 0 45 34 A 1 1 0 0 0 46 35 A 1 1 0 0 0 47 34 A 1 1 0 0 0 46 33 z M 52 33 A 1 1 0 0 0 51 34 A 1 1 0 0 0 52 35 A 1 1 0 0 0 53 34 A 1 1 0 0 0 52 33 z M 58 33 A 1 1 0 0 0 57 34 A 1 1 0 0 0 58 35 A 1 1 0 0 0 59 34 A 1 1 0 0 0 58 33 z M 64 33 A 1 1 0 0 0 63 34 A 1 1 0 0 0 64 35 A 1 1 0 0 0 65 34 A 1 1 0 0 0 64 33 z M 43 36 A 1 1 0 0 0 42 37 A 1 1 0 0 0 43 38 A 1 1 0 0 0 44 37 A 1 1 0 0 0 43 36 z M 49 36 A 1 1 0 0 0 48 37 A 1 1 0 0 0 49 38 A 1 1 0 0 0 50 37 A 1 1 0 0 0 49 36 z M 55 36 A 1 1 0 0 0 54 37 A 1 1 0 0 0 55 38 A 1 1 0 0 0 56 37 A 1 1 0 0 0 55 36 z M 61 36 A 1 1 0 0 0 60 37 A 1 1 0 0 0 61 38 A 1 1 0 0 0 62 37 A 1 1 0 0 0 61 36 z M 12 41 L 39 41 L 39 68 L 37 68 L 31 68 L 25 68 L 19 68 L 15 68 C 14.535072 68 14.102017 67.888384 13.710938 67.703125 A 1 1 0 0 0 14 67 A 1 1 0 0 0 13 66 A 1 1 0 0 0 12.296875 66.289062 C 12.111616 65.897983 12 65.464928 12 65 L 12 61 L 12 55 L 12 49 L 12 43 L 12 41 z M 12 43 A 1 1 0 0 0 13 44 A 1 1 0 0 0 14 43 A 1 1 0 0 0 13 42 A 1 1 0 0 0 12 43 z M 12 49 A 1 1 0 0 0 13 50 A 1 1 0 0 0 14 49 A 1 1 0 0 0 13 48 A 1 1 0 0 0 12 49 z M 12 55 A 1 1 0 0 0 13 56 A 1 1 0 0 0 14 55 A 1 1 0 0 0 13 54 A 1 1 0 0 0 12 55 z M 12 61 A 1 1 0 0 0 13 62 A 1 1 0 0 0 14 61 A 1 1 0 0 0 13 60 A 1 1 0 0 0 12 61 z M 19 68 A 1 1 0 0 0 20 67 A 1 1 0 0 0 19 66 A 1 1 0 0 0 18 67 A 1 1 0 0 0 19 68 z M 25 68 A 1 1 0 0 0 26 67 A 1 1 0 0 0 25 66 A 1 1 0 0 0 24 67 A 1 1 0 0 0 25 68 z M 31 68 A 1 1 0 0 0 32 67 A 1 1 0 0 0 31 66 A 1 1 0 0 0 30 67 A 1 1 0 0 0 31 68 z M 37 68 A 1 1 0 0 0 38 67 A 1 1 0 0 0 37 66 A 1 1 0 0 0 36 67 A 1 1 0 0 0 37 68 z M 41 41 L 68 41 L 68 65 C 68 66.668484 66.668484 68 65 68 L 41 68 L 41 41 z M 19 42 A 1 1 0 0 0 18 43 A 1 1 0 0 0 19 44 A 1 1 0 0 0 20 43 A 1 1 0 0 0 19 42 z M 25 42 A 1 1 0 0 0 24 43 A 1 1 0 0 0 25 44 A 1 1 0 0 0 26 43 A 1 1 0 0 0 25 42 z M 31 42 A 1 1 0 0 0 30 43 A 1 1 0 0 0 31 44 A 1 1 0 0 0 32 43 A 1 1 0 0 0 31 42 z M 37 42 A 1 1 0 0 0 36 43 A 1 1 0 0 0 37 44 A 1 1 0 0 0 38 43 A 1 1 0 0 0 37 42 z M 16 45 A 1 1 0 0 0 15 46 A 1 1 0 0 0 16 47 A 1 1 0 0 0 17 46 A 1 1 0 0 0 16 45 z M 22 45 A 1 1 0 0 0 21 46 A 1 1 0 0 0 22 47 A 1 1 0 0 0 23 46 A 1 1 0 0 0 22 45 z M 28 45 A 1 1 0 0 0 27 46 A 1 1 0 0 0 28 47 A 1 1 0 0 0 29 46 A 1 1 0 0 0 28 45 z M 34 45 A 1 1 0 0 0 33 46 A 1 1 0 0 0 34 47 A 1 1 0 0 0 35 46 A 1 1 0 0 0 34 45 z M 19 48 A 1 1 0 0 0 18 49 A 1 1 0 0 0 19 50 A 1 1 0 0 0 20 49 A 1 1 0 0 0 19 48 z M 25 48 A 1 1 0 0 0 24 49 A 1 1 0 0 0 25 50 A 1 1 0 0 0 26 49 A 1 1 0 0 0 25 48 z M 31 48 A 1 1 0 0 0 30 49 A 1 1 0 0 0 31 50 A 1 1 0 0 0 32 49 A 1 1 0 0 0 31 48 z M 37 48 A 1 1 0 0 0 36 49 A 1 1 0 0 0 37 50 A 1 1 0 0 0 38 49 A 1 1 0 0 0 37 48 z M 16 51 A 1 1 0 0 0 15 52 A 1 1 0 0 0 16 53 A 1 1 0 0 0 17 52 A 1 1 0 0 0 16 51 z M 22 51 A 1 1 0 0 0 21 52 A 1 1 0 0 0 22 53 A 1 1 0 0 0 23 52 A 1 1 0 0 0 22 51 z M 28 51 A 1 1 0 0 0 27 52 A 1 1 0 0 0 28 53 A 1 1 0 0 0 29 52 A 1 1 0 0 0 28 51 z M 34 51 A 1 1 0 0 0 33 52 A 1 1 0 0 0 34 53 A 1 1 0 0 0 35 52 A 1 1 0 0 0 34 51 z M 19 54 A 1 1 0 0 0 18 55 A 1 1 0 0 0 19 56 A 1 1 0 0 0 20 55 A 1 1 0 0 0 19 54 z M 25 54 A 1 1 0 0 0 24 55 A 1 1 0 0 0 25 56 A 1 1 0 0 0 26 55 A 1 1 0 0 0 25 54 z M 31 54 A 1 1 0 0 0 30 55 A 1 1 0 0 0 31 56 A 1 1 0 0 0 32 55 A 1 1 0 0 0 31 54 z M 37 54 A 1 1 0 0 0 36 55 A 1 1 0 0 0 37 56 A 1 1 0 0 0 38 55 A 1 1 0 0 0 37 54 z M 16 57 A 1 1 0 0 0 15 58 A 1 1 0 0 0 16 59 A 1 1 0 0 0 17 58 A 1 1 0 0 0 16 57 z M 22 57 A 1 1 0 0 0 21 58 A 1 1 0 0 0 22 59 A 1 1 0 0 0 23 58 A 1 1 0 0 0 22 57 z M 28 57 A 1 1 0 0 0 27 58 A 1 1 0 0 0 28 59 A 1 1 0 0 0 29 58 A 1 1 0 0 0 28 57 z M 34 57 A 1 1 0 0 0 33 58 A 1 1 0 0 0 34 59 A 1 1 0 0 0 35 58 A 1 1 0 0 0 34 57 z M 19 60 A 1 1 0 0 0 18 61 A 1 1 0 0 0 19 62 A 1 1 0 0 0 20 61 A 1 1 0 0 0 19 60 z M 25 60 A 1 1 0 0 0 24 61 A 1 1 0 0 0 25 62 A 1 1 0 0 0 26 61 A 1 1 0 0 0 25 60 z M 31 60 A 1 1 0 0 0 30 61 A 1 1 0 0 0 31 62 A 1 1 0 0 0 32 61 A 1 1 0 0 0 31 60 z M 37 60 A 1 1 0 0 0 36 61 A 1 1 0 0 0 37 62 A 1 1 0 0 0 38 61 A 1 1 0 0 0 37 60 z M 16 63 A 1 1 0 0 0 15 64 A 1 1 0 0 0 16 65 A 1 1 0 0 0 17 64 A 1 1 0 0 0 16 63 z M 22 63 A 1 1 0 0 0 21 64 A 1 1 0 0 0 22 65 A 1 1 0 0 0 23 64 A 1 1 0 0 0 22 63 z M 28 63 A 1 1 0 0 0 27 64 A 1 1 0 0 0 28 65 A 1 1 0 0 0 29 64 A 1 1 0 0 0 28 63 z M 34 63 A 1 1 0 0 0 33 64 A 1 1 0 0 0 34 65 A 1 1 0 0 0 35 64 A 1 1 0 0 0 34 63 z"/></svg>